mtllib ./game_scene.unity_4.mtl
g Quad
v 0.001 0.015 -3.061617E-17
v -0.001 0.04 3.061617E-17
v -0.001 0.015 -3.061617E-17
v 0.001 0.04 3.061617E-17

vn 0 0 -1
vn 0 0 -1
vn 0 0 -1
vn 0 0 -1

vt 0 0
vt 1 1
vt 1 0
vt 0 1

usemtl hud_mat
usemap hud_mat
f 2/2/2 1/1/1 3/3/3
f 1/1/1 2/2/2 4/4/4
g Quad
v 0.001 -0.04 -3.061617E-17
v -0.001 -0.015 3.061617E-17
v -0.001 -0.04 -3.061617E-17
v 0.001 -0.015 3.061617E-17

vn 0 0 -1
vn 0 0 -1
vn 0 0 -1
vn 0 0 -1

vt 0 0
vt 1 1
vt 1 0
vt 0 1

usemtl hud_mat
usemap hud_mat
f 6/6/6 5/5/5 7/7/7
f 5/5/5 6/6/6 8/8/8
g Quad
v -0.007499999 -0.001 -3.061617E-17
v -0.0325 0.001 3.061617E-17
v -0.0325 -0.001 -3.061617E-17
v -0.007499999 0.001 3.061617E-17

vn 0 0 -1
vn 0 0 -1
vn 0 0 -1
vn 0 0 -1

vt 0 0
vt 1 1
vt 1 0
vt 0 1

usemtl hud_mat
usemap hud_mat
f 10/10/10 9/9/9 11/11/11
f 9/9/9 10/10/10 12/12/12
g Quad
v 0.0325 -0.001 -3.061617E-17
v 0.007499999 0.001 3.061617E-17
v 0.007499999 -0.001 -3.061617E-17
v 0.0325 0.001 3.061617E-17

vn 0 0 -1
vn 0 0 -1
vn 0 0 -1
vn 0 0 -1

vt 0 0
vt 1 1
vt 1 0
vt 0 1

usemtl hud_mat
usemap hud_mat
f 14/14/14 13/13/13 15/15/15
f 13/13/13 14/14/14 16/16/16
